<?xml version="1.0" encoding="UTF-8"?>
<!DOCTYPE svg PUBLIC "-//W3C//DTD SVG 1.1//EN" "http://www.w3.org/Graphics/SVG/1.1/DTD/svg11.dtd">
<svg version="1.1" id="Layer_1" xmlns="http://www.w3.org/2000/svg" xmlns:xlink="http://www.w3.org/1999/xlink" x="0px" y="0px" width="24px" height="24px" viewBox="0 0 24 24" enable-background="new 0 0 24 24" xml:space="preserve">
  <g id="icon">
    <rect x="9.75" y="9.75" width="13.5" height="13.5" id="b" fill="#FFFFFF" opacity="0.5" transform="matrix(6.12323e-17 -1 1 6.12323e-17 0 33)"/>
    <path d="M9,24V9h15v15H9zM11,22h11V11H11V22z" fill="#54B14C"/>
    <polygon points="16.5048,17.8026 14.1632,21.2 12.9852,20.3881 15.6361,16.5422 12.9852,12.6962 14.1632,11.8843 16.5048,15.2817 18.8465,11.8843 20.0245,12.6962 17.3736,16.5422 20.0245,20.3881 18.8465,21.2" fill="#54B14C" stroke-linejoin="miter"/>
    <path d="M3.4249,21.4055L5.3423,19.5H2.925C1.3122,19.5,0,18.1878,0,16.575V13.5h1.5v3.075c0,0.7857,0.6393,1.425,1.425,1.425H5.42l-1.845,-1.8331l1.0572,-1.0641l3.6319,3.6083l-3.7819,3.7583L3.4249,21.4055z" fill="#CC525E"/>
    <polygon points="0.75,12 0.75,3.75 15.75,3.75 15.75,8 8,8 8,12" id="b" fill="#FFFFFF" stroke-linejoin="miter" opacity="0.5"/>
    <polygon points="0,12 0,3 17,3 17,8 15,8 15,5 2,5 2,12" fill="#7D7C7B" stroke-linejoin="miter"/>
    <rect width="17" height="5" fill="#6484C3"/>
    <polygon points="5,12 5,9 2,9 2,8 5,8 5,5 6,5 6,12" fill="#CC525E" stroke-linejoin="miter"/>
    <rect x="2" y="5" width="3" height="7" fill="#CC525E" opacity="0.3"/>
  </g>
</svg>
