<?xml version="1.0" encoding="UTF-8"?>
<!DOCTYPE svg PUBLIC "-//W3C//DTD SVG 1.1//EN" "http://www.w3.org/Graphics/SVG/1.1/DTD/svg11.dtd">
<svg version="1.1" id="Layer_1" xmlns="http://www.w3.org/2000/svg" xmlns:xlink="http://www.w3.org/1999/xlink" x="0px" y="0px" width="24px" height="24px" viewBox="0 0 24 24" enable-background="new 0 0 24 24" xml:space="preserve">
  <g id="icon">
    <path d="M11.9094,24.0051c-6.615,0,-11.8967,-5.2621,-11.8967,-11.8529c0,-3.1965,1.12,-6.1949,3.3353,-8.4428c2.2307,-2.2635,5.2219,-3.51,8.4227,-3.51c3.2035,0,6.4139,1.3046,8.7294,3.5198V0h3.5v10H14V6.5h4.4078c-1.6662,-1.6245,-4.0317,-2.7994,-6.6372,-2.7994c-4.6857,0,-8.2561,3.7124,-8.2561,8.4516c0,4.6603,3.7108,8.3517,8.3949,8.3517c3.7403,0,7.0912,-2.3896,8.1488,-5.9543l0.2808,-0.9466l3.3574,0.9955l-0.281,0.947c-0.7189,2.4233,-2.2331,4.5026,-4.2635,6.0365C17.0533,23.1672,14.5489,24.0051,11.9094,24.0051z" fill="#52B4C0"/>
  </g>
</svg>
